<svg xmlns="http://www.w3.org/2000/svg" width="180" height="28" viewBox="0 0 180 28" role="img" aria-labelledby="title">
  <title id="title">Petshop.ru</title>
  <path fill="#e9531e" d="M47.826 14.382c0 1.358-.36 2.417-1.078 3.176-.72.759-1.658 1.138-2.816 1.138-1.059 0-1.943-.33-2.652-.989-.708-.659-1.063-1.528-1.063-2.606v-1.438c0-1.098.355-1.972 1.063-2.621.71-.65 1.583-.974 2.622-.974 1.158 0 2.101.38 2.83 1.139.73.759 1.094 1.817 1.094 3.175zm-11.773 13.48h4.164v-7.219c.54.46 1.188.83 1.947 1.109a6.892 6.892 0 002.397.419c1.278 0 2.49-.295 3.64-.884 1.148-.588 2.082-1.468 2.8-2.636.72-1.168 1.08-2.591 1.08-4.27 0-1.676-.345-3.1-1.035-4.268-.688-1.168-1.572-2.047-2.65-2.636-1.08-.59-2.198-.884-3.356-.884-1.937 0-3.545.64-4.823 1.918V6.893h-4.164zM77.968 6.893h3.176v2.996h-3.176v7.37c0 .478.14.848.42 1.107.279.26.678.39 1.198.39.32 0 .719-.07 1.198-.21l.21.12v3.205c-.859.2-1.738.3-2.636.3-1.399 0-2.507-.38-3.326-1.139-.819-.758-1.228-1.897-1.228-3.415V9.89h-2.666V6.893h2.666V2.609h.54l3.624 1.258zM90.565 10.053c-.45-.369-1.004-.554-1.663-.554-.5 0-.924.105-1.273.315-.35.21-.524.494-.524.853 0 .44.28.8.839 1.079.559.28 1.587.62 3.085 1.018 1.538.42 2.666.974 3.385 1.663.72.69 1.079 1.623 1.079 2.8 0 .94-.245 1.784-.734 2.532-.49.75-1.189 1.339-2.097 1.768-.91.43-1.962.644-3.16.644-1.758 0-3.191-.384-4.3-1.153-1.108-.77-1.862-1.853-2.261-3.251l.12-.39 3.205-.958c.36 1.678 1.448 2.516 3.265 2.516.62 0 1.124-.129 1.513-.389.39-.26.584-.619.584-1.078 0-.48-.224-.854-.674-1.124-.449-.27-1.323-.574-2.62-.914-1.579-.378-2.767-.933-3.566-1.662-.799-.729-1.198-1.693-1.198-2.891 0-.798.224-1.522.674-2.172.45-.649 1.083-1.163 1.902-1.543.819-.379 1.757-.569 2.816-.569 1.598 0 2.896.345 3.894 1.034.999.689 1.648 1.662 1.948 2.92l-.15.33-3.205.78c-.14-.7-.435-1.234-.884-1.604zM102.045 8.75c.6-.639 1.358-1.158 2.277-1.558a7.21 7.21 0 012.905-.599c1.618 0 2.926.47 3.925 1.408.998.94 1.498 2.207 1.498 3.805V21.87h-4.194v-9.017c0-.878-.245-1.543-.734-1.992-.49-.45-1.124-.674-1.903-.674a4.23 4.23 0 00-2.097.554 4.931 4.931 0 00-1.677 1.573v9.556H97.85V.003h4.194zM123.58 10.218c1.157 0 2.106.375 2.845 1.124.739.748 1.109 1.762 1.109 3.04s-.37 2.292-1.109 3.04c-.739.75-1.688 1.124-2.846 1.124-1.158 0-2.112-.374-2.86-1.123-.75-.749-1.124-1.763-1.124-3.041s.375-2.292 1.124-3.04c.748-.75 1.702-1.124 2.86-1.124zm-.148-3.625c-1.577 0-2.986.34-4.223 1.019a7.491 7.491 0 00-2.906 2.786c-.7 1.178-1.049 2.506-1.049 3.984 0 1.478.35 2.806 1.049 3.984a7.484 7.484 0 002.906 2.786c1.237.68 2.646 1.019 4.223 1.019 1.558 0 2.956-.34 4.194-1.019a7.484 7.484 0 002.906-2.786c.7-1.178 1.049-2.506 1.049-3.984 0-1.478-.35-2.806-1.049-3.984a7.505 7.505 0 00-2.906-2.786c-1.238-.68-2.636-1.019-4.194-1.019zM144.865 11.207c.729.759 1.093 1.817 1.093 3.175 0 1.358-.359 2.417-1.078 3.176-.719.759-1.658 1.138-2.816 1.138-1.059 0-1.943-.33-2.651-.989-.71-.659-1.064-1.528-1.064-2.606v-1.438c0-1.098.355-1.972 1.064-2.621.708-.65 1.583-.974 2.621-.974 1.158 0 2.102.38 2.831 1.139zm-10.68 16.656h4.164v-7.22c.54.46 1.189.83 1.947 1.109.76.279 1.558.419 2.397.419a7.872 7.872 0 003.64-.884c1.148-.588 2.082-1.468 2.8-2.636.72-1.168 1.08-2.591 1.08-4.27 0-1.676-.345-3.1-1.034-4.268-.69-1.168-1.573-2.047-2.651-2.636-1.079-.59-2.198-.884-3.356-.884-1.937 0-3.545.64-4.823 1.918V6.893h-4.164z"/>
  <path fill="#1f6eb4" d="M157.452 8.69a6.44 6.44 0 011.857-1.528 4.76 4.76 0 012.307-.569c.6 0 1.079.08 1.438.24l-.54 3.295-.209.21c-.4-.1-.739-.15-1.018-.15-.82 0-1.558.23-2.217.689-.66.46-1.198 1.129-1.618 2.007v8.987h-4.194V6.893h4.194zM175.806 20.014c-1.338 1.438-2.966 2.157-4.883 2.157-1.638 0-2.926-.489-3.865-1.468-.939-.979-1.408-2.286-1.408-3.924V6.893h4.194v9.017c0 .859.22 1.518.66 1.977.438.46 1.058.69 1.857.69.718 0 1.378-.205 1.977-.615a4.729 4.729 0 001.468-1.633V6.893H180V21.87h-4.194z"/>
  <path fill="#e9531e" d="M59.989 10.548c.66-.54 1.428-.81 2.307-.81.978 0 1.797.27 2.456.81.66.539 1.038 1.258 1.138 2.157H58.7c.2-.9.63-1.618 1.289-2.157zm9.167 6.86l-3.325-.93c-.56 1.54-1.698 2.308-3.415 2.308-1.059 0-1.938-.304-2.636-.914-.7-.609-1.1-1.433-1.2-2.471h11.295v-1.109c0-1.577-.315-2.946-.944-4.104a6.477 6.477 0 00-2.666-2.666c-1.149-.619-2.462-.929-3.94-.929-1.358 0-2.626.33-3.804.989a7.566 7.566 0 00-2.83 2.756c-.71 1.179-1.064 2.527-1.064 4.044 0 1.538.33 2.896.988 4.074a6.954 6.954 0 002.741 2.741c1.169.65 2.492.974 3.97.974 1.817 0 3.34-.415 4.568-1.243 1.084-.731 1.898-1.785 2.446-3.161zM25.511 12.772c-.32-1.843-1.324-7.405-2.01-11.202C23.22.022 21.294-.54 20.224.613l-4.602 4.962H10.05L5.447.613C4.377-.541 2.45.023 2.17 1.57 1.484 5.367.48 10.93.16 12.772c-.115.662-.502 3.53.6 6.507 1.764 4.77 6.523 8.584 12.075 8.584 5.553 0 10.312-3.814 12.077-8.584 1.102-2.976.715-5.845.6-6.507z"/>
</svg>
