<svg xmlns="http://www.w3.org/2000/svg" viewBox="0 0 640 640" role="img" aria-label="Корм для хорьков">
  <defs><linearGradient id="bag" x1="0" y1="0" x2="1" y2="1"><stop stop-color="#7550ff"/><stop offset="1" stop-color="#ff7040"/></linearGradient></defs>
  <rect width="640" height="640" rx="68" fill="#f5f2ff"/>
  <path d="M154 96h332l36 446H118z" fill="url(#bag)"/>
  <path d="M166 96h308l-15 72H181z" fill="#fff" opacity=".95"/>
  <text x="320" y="143" text-anchor="middle" font-family="Arial,sans-serif" font-size="34" font-weight="700" fill="#6541df">PETSHOP</text>
  <circle cx="320" cy="315" r="112" fill="#fff4e8"/>
  <ellipse cx="320" cy="326" rx="80" ry="94" fill="#b98358"/>
  <ellipse cx="270" cy="256" rx="31" ry="54" fill="#7e5135" transform="rotate(-24 270 256)"/>
  <ellipse cx="370" cy="256" rx="31" ry="54" fill="#7e5135" transform="rotate(24 370 256)"/>
  <path d="M270 292c34-34 66-34 100 0v76c-29 35-71 35-100 0z" fill="#f5d0ab"/>
  <circle cx="292" cy="320" r="9" fill="#2c2530"/><circle cx="348" cy="320" r="9" fill="#2c2530"/>
  <path d="M307 350h26l-13 14z" fill="#2c2530"/>
  <text x="320" y="474" text-anchor="middle" font-family="Arial,sans-serif" font-size="55" font-weight="800" fill="#fff">FERRET</text>
  <text x="320" y="516" text-anchor="middle" font-family="Arial,sans-serif" font-size="24" font-weight="700" fill="#fff">ПОЛНОРАЦИОННЫЙ КОРМ</text>
</svg>
